<svg width="39" height="23" viewBox="0 0 39 23" fill="none" xmlns="http://www.w3.org/2000/svg">
<g clipPath="url(#clip0_7673_144)">
<path d="M11.0842 8.39136C11.0842 8.85894 11.1355 9.23806 11.2253 9.51608C11.3279 9.79411 11.4562 10.0974 11.6358 10.426C11.7 10.5271 11.7256 10.6282 11.7256 10.7166C11.7256 10.843 11.6486 10.9694 11.4819 11.0958L10.6736 11.6265C10.5582 11.7023 10.4427 11.7403 10.3401 11.7403C10.2118 11.7403 10.0835 11.6771 9.95522 11.5633C9.77561 11.3738 9.62167 11.1716 9.49338 10.9694C9.36509 10.7545 9.2368 10.5144 9.09568 10.2238C8.09502 11.3864 6.83778 11.9677 5.32397 11.9677C4.24634 11.9677 3.3868 11.6644 2.75818 11.0578C2.12956 10.4512 1.80884 9.64246 1.80884 8.63147C1.80884 7.55729 2.19371 6.68531 2.97627 6.02817C3.75884 5.37103 4.79798 5.04246 6.11936 5.04246C6.55555 5.04246 7.00456 5.08037 7.47923 5.14356C7.9539 5.20674 8.4414 5.30784 8.95456 5.42158V4.49905C8.95456 3.53861 8.7493 2.86883 8.3516 2.47707C7.94107 2.08531 7.24831 1.89575 6.26048 1.89575C5.81147 1.89575 5.34963 1.9463 4.87496 2.06004C4.40028 2.17378 3.93844 2.31279 3.48943 2.48971C3.28417 2.57817 3.13022 2.62872 3.04042 2.654C2.95061 2.67927 2.88647 2.69191 2.83515 2.69191C2.65555 2.69191 2.56575 2.56553 2.56575 2.30015V1.68092C2.56575 1.47872 2.5914 1.32707 2.65555 1.23861C2.71969 1.15015 2.83515 1.06169 3.01476 0.973226C3.46377 0.745754 4.00259 0.556193 4.63121 0.404545C5.25982 0.240259 5.92693 0.164435 6.63252 0.164435C8.15917 0.164435 9.27528 0.505644 9.99371 1.18806C10.6993 1.87048 11.0585 2.90674 11.0585 4.29685V8.39136H11.0842ZM5.87561 10.3122C6.29897 10.3122 6.73515 10.2364 7.197 10.0848C7.65884 9.93312 8.06936 9.6551 8.41575 9.27597C8.62101 9.03586 8.77496 8.77048 8.85193 8.46718C8.9289 8.16389 8.98022 7.7974 8.98022 7.36773V6.83696C8.60818 6.7485 8.21048 6.67268 7.79996 6.62213C7.38943 6.57158 6.99173 6.5463 6.59404 6.5463C5.7345 6.5463 5.10588 6.71059 4.68252 7.0518C4.25917 7.39301 4.0539 7.87323 4.0539 8.5051C4.0539 9.09905 4.20785 9.54136 4.52857 9.84466C4.83647 10.1606 5.28548 10.3122 5.87561 10.3122ZM16.1773 11.6771C15.9463 11.6771 15.7924 11.6392 15.6898 11.5507C15.5871 11.4749 15.4973 11.298 15.4203 11.0578L12.4055 1.28916C12.3286 1.03641 12.2901 0.872127 12.2901 0.783666C12.2901 0.581468 12.3927 0.467732 12.598 0.467732H13.8552C14.099 0.467732 14.2657 0.505644 14.3555 0.594105C14.4582 0.669929 14.5352 0.846853 14.6121 1.08696L16.7674 9.4529L18.7687 1.08696C18.8328 0.834215 18.9098 0.669929 19.0125 0.594105C19.1151 0.518281 19.2947 0.467732 19.5256 0.467732H20.5519C20.7957 0.467732 20.9625 0.505644 21.0651 0.594105C21.1677 0.669929 21.2575 0.846853 21.3088 1.08696L23.3358 9.554L25.5552 1.08696C25.6322 0.834215 25.722 0.669929 25.8118 0.594105C25.9144 0.518281 26.0812 0.467732 26.3121 0.467732H27.5052C27.7105 0.467732 27.8259 0.56883 27.8259 0.783666C27.8259 0.846852 27.8131 0.910039 27.8003 0.985864C27.7875 1.06169 27.7618 1.16279 27.7105 1.3018L24.6187 11.0705C24.5417 11.3232 24.4519 11.4875 24.3493 11.5633C24.2467 11.6392 24.0799 11.6897 23.8618 11.6897H22.7585C22.5148 11.6897 22.348 11.6518 22.2453 11.5633C22.1427 11.4749 22.0529 11.3106 22.0016 11.0578L20.0131 2.90674L18.0375 11.0452C17.9733 11.298 17.8963 11.4622 17.7937 11.5507C17.6911 11.6392 17.5115 11.6771 17.2805 11.6771H16.1773ZM32.6625 12.0183C31.9953 12.0183 31.3282 11.9425 30.6868 11.7908C30.0453 11.6392 29.545 11.4749 29.2115 11.2853C29.0062 11.1716 28.8651 11.0452 28.8138 10.9315C28.7625 10.8177 28.7368 10.6914 28.7368 10.5776V9.93312C28.7368 9.66773 28.8394 9.54136 29.0319 9.54136C29.1088 9.54136 29.1858 9.554 29.2628 9.57927C29.3398 9.60455 29.4552 9.6551 29.5835 9.70564C30.0197 9.89521 30.4944 10.0469 30.9947 10.148C31.5078 10.2491 32.0082 10.2996 32.5213 10.2996C33.3296 10.2996 33.9582 10.1606 34.3944 9.88257C34.8305 9.60455 35.0615 9.20015 35.0615 8.68202C35.0615 8.32817 34.946 8.03751 34.7151 7.7974C34.4842 7.55729 34.048 7.34246 33.4194 7.14026L31.5592 6.57158C30.6227 6.28092 29.9299 5.85125 29.5065 5.28257C29.0832 4.72652 28.8651 4.10729 28.8651 3.45015C28.8651 2.91938 28.9805 2.4518 29.2115 2.0474C29.4424 1.64301 29.7503 1.28916 30.1351 1.01114C30.52 0.720479 30.9562 0.505644 31.4694 0.353995C31.9825 0.202347 32.5213 0.13916 33.0858 0.13916C33.368 0.13916 33.6631 0.151798 33.9453 0.18971C34.2404 0.227622 34.5098 0.278171 34.7792 0.328721C35.0358 0.391907 35.2796 0.455094 35.5105 0.530918C35.7414 0.606743 35.921 0.682567 36.0493 0.758391C36.2289 0.85949 36.3572 0.960589 36.4342 1.07433C36.5111 1.17542 36.5496 1.31443 36.5496 1.49136V2.08531C36.5496 2.3507 36.447 2.48971 36.2546 2.48971C36.1519 2.48971 35.9851 2.43916 35.7671 2.33806C35.0358 2.00949 34.2148 1.8452 33.3039 1.8452C32.5727 1.8452 31.9953 1.95894 31.5977 2.19905C31.2 2.43916 30.9947 2.80564 30.9947 3.32378C30.9947 3.67762 31.123 3.98092 31.3796 4.22103C31.6361 4.46114 32.1108 4.70125 32.7907 4.91608L34.6125 5.48477C35.5361 5.77542 36.2032 6.17982 36.6009 6.69795C36.9986 7.21608 37.1911 7.81004 37.1911 8.46718C37.1911 9.01059 37.0756 9.50345 36.8575 9.93312C36.6266 10.3628 36.3187 10.7419 35.921 11.0452C35.5233 11.3611 35.0486 11.5886 34.497 11.7529C33.9197 11.9298 33.3167 12.0183 32.6625 12.0183Z" fill="white"/>
<path fill-rule="evenodd" clip-rule="evenodd" d="M35.0872 18.16C30.8665 21.2309 24.7342 22.8611 19.4615 22.8611C12.072 22.8611 5.41382 20.1693 0.384873 15.6957C-0.0128243 15.3419 0.346386 14.8617 0.821057 15.1397C6.26053 18.2485 12.9701 20.1314 19.9105 20.1314C24.5931 20.1314 29.7375 19.171 34.4714 17.1996C35.177 16.8836 35.7799 17.6545 35.0872 18.16Z" fill="#FF9900"/>
<path fill-rule="evenodd" clip-rule="evenodd" d="M36.8447 16.1886C36.3059 15.5062 33.2783 15.8601 31.9056 16.0243C31.4951 16.0749 31.4309 15.7211 31.803 15.4557C34.2148 13.7875 38.1789 14.2678 38.6408 14.8238C39.1026 15.3925 38.5125 19.2974 36.2546 21.1678C35.9082 21.4584 35.5747 21.3068 35.7286 20.9276C36.2418 19.6765 37.3836 16.8584 36.8447 16.1886Z" fill="#FF9900"/>
</g>
<defs>
<clipPath id="clip0_7673_144">
<rect width="39" height="23" fill="white"/>
</clipPath>
</defs>
</svg>
