<svg width="39" height="14" viewBox="0 0 39 14" fill="none" xmlns="http://www.w3.org/2000/svg">
<g clipPath="url(#clip0_7673_209)">
<path d="M11.3573 6.53872C11.3573 6.53872 11.3573 6.54254 11.3573 6.54484L10.8445 8.72211C10.8168 8.84527 10.6912 8.93557 10.5458 8.93557H9.9271C9.88127 8.93557 9.84015 8.96539 9.8275 9.00823C9.25621 10.9047 8.48259 12.2084 7.46089 12.991C6.59163 13.6573 5.52013 13.9679 4.08908 13.9679C2.80264 13.9679 1.93578 13.5632 1.20011 12.7645C0.228161 11.7088 -0.174051 9.9806 0.0693309 7.89817C0.508683 3.9889 2.58059 0.0444176 6.57191 0.0444176C7.78566 0.0337072 8.73863 0.400155 9.40163 1.13152C10.1025 1.90496 10.4589 3.0701 10.4605 4.5948C10.4581 4.73327 10.3404 4.84496 10.1989 4.84496H7.27516C7.17168 4.84496 7.07922 4.75393 7.08079 4.65371C7.05706 3.5995 6.73705 3.0854 6.10172 3.0854C4.98122 3.0854 4.31982 4.57414 3.96897 5.39961C3.47905 6.55248 3.23013 7.80411 3.27912 9.05108C3.30204 9.63175 3.39766 10.4481 3.96107 10.7862C4.46048 11.0861 5.17324 10.8871 5.60469 10.5551C6.03614 10.2231 6.38304 9.6486 6.52921 9.12454C6.54975 9.05187 6.55137 8.99527 6.53159 8.96999C6.51106 8.94399 6.45416 8.93787 6.41071 8.93787H5.66C5.5794 8.93787 5.49959 8.90193 5.45139 8.84375C5.41109 8.79478 5.39528 8.73436 5.40951 8.67472L5.92314 6.49357C5.94843 6.38193 6.05194 6.29775 6.17917 6.28248V6.27708H11.106C11.1179 6.27708 11.1298 6.27708 11.1409 6.27939C11.2689 6.29545 11.359 6.41175 11.3566 6.53872H11.3573Z" fill="#0AE448"/>
<path d="M19.8412 4.03629C19.8388 4.17246 19.721 4.28415 19.5796 4.28415H16.8866C16.7104 4.28415 16.5626 4.14415 16.5626 3.97355C16.5626 3.2047 16.2908 2.8306 15.7345 2.8306C15.1782 2.8306 14.8194 3.16492 14.8092 3.74864C14.7973 4.39967 15.1734 4.99104 16.245 6.00776C17.6555 7.30218 18.2204 8.44897 18.1936 9.96449C18.1493 12.4156 16.4456 14 13.8538 14C12.5302 14 11.5188 13.6535 10.8463 12.9703C10.1636 12.2764 9.85064 11.2581 9.91625 9.94382C9.91938 9.80764 10.0363 9.69673 10.1778 9.69673H12.9633C13.0391 9.69673 13.1142 9.73267 13.1648 9.79388C13.2082 9.84667 13.2264 9.9117 13.2153 9.97291C13.1845 10.4472 13.2691 10.8014 13.4595 10.9973C13.582 11.1242 13.7519 11.1885 13.9644 11.1885C14.4789 11.1885 14.7807 10.8328 14.7917 10.2131C14.8013 9.67758 14.6282 9.20788 13.6847 8.25849C12.4662 7.09333 11.3733 5.88995 11.4073 3.99727C11.4271 2.90022 11.8728 1.8965 12.6622 1.17125C13.4966 0.404699 14.6385 0 15.9636 0C17.2912 0.0091803 18.2971 0.379453 18.9537 1.10087C19.5757 1.78481 19.8751 2.77246 19.842 4.03629H19.8412Z" fill="#0AE448"/>
<path d="M28.1885 13.5385L28.2058 0.503273C28.2082 0.366333 28.0952 0.254639 27.9538 0.254639H23.7855C23.6455 0.254639 23.5839 0.372453 23.5436 0.450486L17.5089 13.459V13.4613C17.5089 13.4613 17.5073 13.4636 17.5065 13.4644C17.4393 13.6242 17.5666 13.7956 17.7436 13.7956H20.657C20.8143 13.7956 20.9186 13.749 20.9699 13.6518L21.5484 12.2916C21.6195 12.1102 21.6329 12.0935 21.8352 12.0935H24.6191C24.8127 12.0935 24.8167 12.0973 24.8135 12.2824L24.7511 13.547C24.7487 13.6839 24.8617 13.7956 25.0032 13.7956H27.9466C28.0217 13.7956 28.092 13.765 28.1386 13.7107C28.1805 13.6625 28.1979 13.6013 28.1885 13.5385ZM23.0316 9.18636C23.0047 9.18636 22.9834 9.18557 22.966 9.18406C22.9225 9.18024 22.8933 9.1397 22.9044 9.09836C22.9099 9.07921 22.9178 9.054 22.9296 9.0226L25.0174 3.96961C25.0355 3.91988 25.0584 3.87092 25.0822 3.82349C25.1162 3.75541 25.1572 3.75081 25.1699 3.80131C25.1809 3.84338 24.9304 8.9897 24.9304 8.9897C24.9107 9.18248 24.902 9.19018 24.7076 9.20624L23.0339 9.18709H23.03L23.0316 9.18636Z" fill="#0AE448"/>
<path d="M34.1261 0.254704H31.9136C31.7966 0.254704 31.6654 0.315141 31.6346 0.451316C31.6346 0.451316 28.5552 13.5302 28.5552 13.5318C28.5418 13.5922 28.556 13.6519 28.5971 13.7016C28.6453 13.7597 28.7251 13.7957 28.8057 13.7957H31.5714C31.7199 13.7957 31.8219 13.7246 31.8495 13.6006C31.8495 13.6006 32.1846 12.1226 32.1854 12.118C32.2091 12.0025 32.168 11.913 32.0621 11.8586C32.0123 11.8334 31.9625 11.8081 31.9136 11.7829L31.4339 11.5389L30.9566 11.2956C30.895 11.2642 30.8333 11.2329 30.7725 11.2015C30.7417 11.1862 30.7227 11.1556 30.7235 11.1219C30.7243 11.0722 30.767 11.0316 30.8183 11.0316L32.3339 11.0386C32.7875 11.0408 33.2411 11.0095 33.6868 10.9292C36.8254 10.3622 38.91 7.90267 38.9701 4.55646C39.0214 1.70061 37.392 0.253174 34.1285 0.253174L34.1261 0.254704ZM33.373 8.03886H33.3138C33.181 8.03886 33.1573 8.02431 33.1534 8.0197C33.151 8.01667 34.0273 4.25273 34.0281 4.24738C34.0502 4.13875 34.0495 4.07601 33.9807 4.03929C33.893 3.99186 32.6137 3.33164 32.6137 3.33164C32.5828 3.31558 32.5647 3.28498 32.5655 3.25132C32.5662 3.20235 32.6081 3.16181 32.6595 3.16181H34.6824C35.3122 3.18093 35.6631 3.73175 35.6465 4.67273C35.6172 6.30225 34.8254 7.98146 33.373 8.03886Z" fill="#0AE448"/>
</g>
<defs>
<clipPath id="clip0_7673_209">
<rect width="39" height="14" fill="white"/>
</clipPath>
</defs>
</svg>
