<svg width="23" height="24" viewBox="0 0 23 24" fill="none" xmlns="http://www.w3.org/2000/svg">
<g clipPath="url(#clip0_7670_121)">
<path d="M17.2048 17.3046C17.3556 16.0329 17.3104 15.8464 18.2461 16.0524L18.4837 16.0735C19.2033 16.1066 20.1445 15.9564 20.6975 15.6963C21.8879 15.1372 22.5937 14.2037 21.4199 14.4489C18.7425 15.0081 18.5585 14.0903 18.5585 14.0903C21.3857 9.84393 22.5675 4.45354 21.5474 3.13408C18.7649 -0.464928 13.9486 1.23696 13.868 1.28115L13.8424 1.28594C13.3134 1.17483 12.7213 1.10844 12.0562 1.09756C10.8446 1.0774 9.92524 1.4191 9.22785 1.95456C9.22785 1.95456 0.63578 -1.62876 1.0355 6.46096C1.12051 8.18187 3.4723 19.4828 6.27725 16.0694C7.30245 14.8212 8.2932 13.7659 8.2932 13.7659C8.78517 14.0967 9.37418 14.2655 9.99194 14.2049L10.0397 14.1637C10.0247 14.3186 10.0313 14.4702 10.0588 14.6497C9.33634 15.467 9.54863 15.6105 8.10396 15.9115C6.64237 16.2164 7.50106 16.7593 8.06154 16.9012C8.7412 17.0733 10.3135 17.317 11.3762 15.8114L11.3339 15.9832C11.6173 16.2127 11.5982 17.6331 11.6384 18.648C11.6786 19.6629 11.7457 20.6099 11.9501 21.1683C12.1544 21.7265 12.3956 23.1648 14.2942 22.7529C15.881 22.4086 17.0942 21.9133 17.2048 17.3046Z" fill="black" stroke="black"/>
<path d="M21.4202 14.6154C18.7425 15.1745 18.5585 14.2568 18.5585 14.2568C21.3857 10.0101 22.5675 4.61963 21.5476 3.30034C18.7652 -0.298454 13.9486 1.40354 13.8683 1.44773L13.8424 1.45242C13.3134 1.34125 12.7213 1.27502 12.0559 1.26403C10.8443 1.24393 9.92526 1.58557 9.22786 2.12093C9.22786 2.12093 0.635635 -1.46223 1.03525 6.62743C1.12026 8.34845 3.472 19.6494 6.27705 16.236C7.3023 14.9878 8.2929 13.9325 8.2929 13.9325C8.78492 14.2633 9.37393 14.4321 9.99142 14.3715L10.0394 14.3303C10.0245 14.4852 10.0313 14.6368 10.0586 14.8163C9.33598 15.6335 9.54832 15.777 8.10376 16.078C6.64207 16.383 7.50075 16.9259 8.06139 17.0678C8.74106 17.2398 10.3135 17.4836 11.3759 15.978L11.3336 16.1498C11.6167 16.3793 11.8155 17.643 11.7822 18.7885C11.7489 19.9341 11.7266 20.7206 11.9497 21.3349C12.1728 21.9492 12.3952 23.3313 14.2942 22.9194C15.881 22.5752 16.7032 21.6832 16.8176 20.1952C16.8988 19.1374 17.0825 19.2938 17.0941 18.348L17.2415 17.9003C17.4114 16.4663 17.2684 16.0037 18.2461 16.2189L18.4836 16.24C19.2032 16.2731 20.1449 16.1228 20.6976 15.8628C21.8878 15.3037 22.5936 14.3701 21.4201 14.6154H21.4202Z" fill="#336791"/>
<path d="M11.4909 15.4376C11.4171 18.1058 11.5094 20.7926 11.7673 21.4456C12.0254 22.0986 12.5777 23.3687 14.4768 22.9569C16.0635 22.6125 16.6408 21.9462 16.8913 20.4754C17.0758 19.3932 17.4315 16.3879 17.4771 15.7721M9.21457 2.06153C9.21457 2.06153 0.616484 -1.49583 1.0162 6.59384C1.10121 8.31486 3.45311 19.6162 6.25812 16.2026C7.28315 14.9543 8.21019 13.9752 8.21019 13.9752M13.8588 1.41225C13.5612 1.50671 18.6416 -0.467784 21.5288 3.26685C22.5487 4.5862 21.3668 9.97671 18.5397 14.2235" stroke="white" stroke-linecap="round" stroke-linejoin="round"/>
<path d="M18.5396 14.2234C18.5396 14.2234 18.7238 15.1414 21.4015 14.5819C22.5747 14.3366 21.8687 15.2702 20.6788 15.8296C19.7022 16.2884 17.5129 16.406 17.4771 15.772C17.3851 14.1363 18.6294 14.6332 18.5396 14.2234ZM18.5396 14.2234C18.4584 13.8543 17.9019 13.492 17.5338 12.5886C17.2125 11.8001 13.1264 5.75317 18.667 6.65123C18.87 6.60872 17.222 1.31639 12.0368 1.23033C6.85279 1.14428 7.02286 7.68385 7.02286 7.68385" stroke="white" stroke-linecap="round" stroke-linejoin="bevel"/>
<path d="M10.0396 14.7828C9.31688 15.6001 9.52943 15.7436 8.08477 16.0447C6.62307 16.3497 7.48186 16.8925 8.04234 17.0343C8.72201 17.2065 10.2944 17.4502 11.3569 15.9443C11.6804 15.4857 11.355 14.7541 10.9105 14.5676C10.6958 14.4776 10.4087 14.3647 10.0396 14.7828Z" stroke="white" stroke-linecap="round" stroke-linejoin="round"/>
<path d="M9.99227 14.7685C9.91945 14.288 10.1482 13.7162 10.3934 13.0473C10.7619 12.0436 11.6121 11.0398 10.932 7.85596C10.4251 5.48341 7.02496 7.3622 7.02283 7.6839C7.02076 8.0055 7.17662 9.3145 6.96604 10.8388C6.69125 12.8279 8.21635 14.5102 9.97253 14.3381" stroke="white" stroke-linecap="round" stroke-linejoin="round"/>
<path d="M9.18339 7.63559C9.16806 7.74546 9.38211 8.03866 9.6612 8.07783C9.93982 8.11717 10.1783 7.88805 10.1934 7.77828C10.2085 7.66841 9.99475 7.54738 9.71555 7.50804C9.43678 7.46865 9.19819 7.52599 9.18345 7.63559H9.18339Z" fill="white" stroke="white" stroke-width="0.5"/>
<path d="M17.6698 7.37193C17.6849 7.45059 17.4711 7.6605 17.192 7.68854C16.9132 7.71671 16.6747 7.55267 16.6594 7.47409C16.6447 7.39542 16.8585 7.30878 17.1374 7.28062C17.4163 7.25245 17.6547 7.29346 17.6698 7.37197V7.37193Z" fill="white" stroke="white" stroke-width="0.25"/>
<path d="M18.6671 7.31787C18.713 8.17973 18.4837 8.76676 18.4548 9.68423C18.412 11.0178 19.0829 12.5442 18.072 14.0725" stroke="white" stroke-linecap="round" stroke-linejoin="round"/>
</g>
<defs>
<clipPath id="clip0_7670_121">
<rect width="23" height="24" fill="white"/>
</clipPath>
</defs>
</svg>
