<svg width="28" height="28" viewBox="0 0 28 28" fill="none" xmlns="http://www.w3.org/2000/svg">
<path d="M19.1494 5.24023L26.6294 11.4616L23.9361 16.9416L19.4267 15.6909H15.5254L19.1494 5.24023Z" fill="url(#paint0_linear_7673_127)"/>
<path d="M11.6133 9.2802L10.1653 16.9415L10.0266 19.5442L6.37595 21.1255L1.19995 21.6829L2.77062 5.13086L12.1493 1.2002L17.928 4.98953L11.6133 9.2802Z" fill="url(#paint1_linear_7673_127)"/>
<path d="M11.6133 9.27979L12.3173 24.0425L9.97862 26.7998L1.19995 21.6825L8.40795 10.9411L11.6133 9.27979Z" fill="url(#paint2_linear_7673_127)"/>
<path d="M21.272 8.20286H12.4027L20.24 1.2002L21.272 8.20286Z" fill="url(#paint3_linear_7673_127)"/>
<path d="M26.8001 24.1012L18.9921 26.7519L8.59473 23.8239L11.6134 9.27991L12.8187 8.20258L19.1494 7.60791L18.5761 13.9652L23.6107 12.0132L26.8001 24.1012Z" fill="url(#paint4_linear_7673_127)"/>
<path d="M6 6H22V22H6V6Z" fill="black"/>
<path d="M7.99463 18.9761H13.9946V19.9761H7.99463V18.9761ZM7.99996 8.00007H10.4533C11.8826 8.00007 12.7493 8.84807 12.7493 10.0721V10.0881C12.7493 11.4747 11.6693 12.1947 10.3253 12.1947H9.3333V13.9921H7.99996V8.00007ZM10.3626 11.0214C11.0213 11.0214 11.408 10.6294 11.408 10.1147V10.0987C11.408 9.50674 10.9973 9.1894 10.3413 9.1894H9.3333V11.0214H10.3626ZM13.464 11.0161V11.0001C13.4563 10.589 13.5319 10.1806 13.6864 9.7996C13.8409 9.41858 14.0711 9.07284 14.3629 8.78323C14.6548 8.49363 15.0023 8.26618 15.3845 8.11461C15.7667 7.96305 16.1756 7.89052 16.5866 7.9014C17.0233 7.87933 17.4597 7.95015 17.867 8.1092C18.2743 8.26825 18.6431 8.51191 18.9493 8.82407L18.112 9.79207C17.7089 9.37471 17.1586 9.1316 16.5786 9.11474C15.568 9.11474 14.84 9.95474 14.84 10.9814V11.0001C14.84 12.0267 15.552 12.8827 16.5786 12.8827C17.264 12.8827 17.6826 12.6161 18.1546 12.1814L18.992 13.0267C18.6904 13.3793 18.3125 13.6586 17.887 13.8434C17.4615 14.0282 16.9994 14.1137 16.536 14.0934C16.1304 14.0995 15.7277 14.0241 15.3519 13.8715C14.9761 13.719 14.6347 13.4925 14.3482 13.2054C14.0616 12.9183 13.8357 12.5766 13.6838 12.2005C13.5319 11.8244 13.4571 11.4216 13.464 11.0161Z" fill="white"/>
<defs>
<linearGradient id="paint0_linear_7673_127" x1="10.3414" y1="11.0909" x2="25.5761" y2="11.0909" gradientUnits="userSpaceOnUse">
<stop stop-color="#21D789"/>
<stop offset="1" stop-color="#07C3F2"/>
</linearGradient>
<linearGradient id="paint1_linear_7673_127" x1="-7.78138" y1="22.8055" x2="23.5893" y2="-0.351811" gradientUnits="userSpaceOnUse">
<stop offset="0.01" stop-color="#FCF84A"/>
<stop offset="0.11" stop-color="#A7EB62"/>
<stop offset="0.21" stop-color="#5FE077"/>
<stop offset="0.27" stop-color="#32DA84"/>
<stop offset="0.31" stop-color="#21D789"/>
<stop offset="0.58" stop-color="#21D789"/>
<stop offset="0.6" stop-color="#21D789"/>
<stop offset="0.69" stop-color="#20D68C"/>
<stop offset="0.76" stop-color="#1ED497"/>
<stop offset="0.83" stop-color="#19D1A9"/>
<stop offset="0.9" stop-color="#13CCC2"/>
<stop offset="0.97" stop-color="#0BC6E1"/>
<stop offset="1" stop-color="#07C3F2"/>
</linearGradient>
<linearGradient id="paint2_linear_7673_127" x1="4.61328" y1="29.5971" x2="9.84528" y2="13.1785" gradientUnits="userSpaceOnUse">
<stop stop-color="#21D789"/>
<stop offset="0.16" stop-color="#24D888"/>
<stop offset="0.3" stop-color="#2FD985"/>
<stop offset="0.43" stop-color="#41DC80"/>
<stop offset="0.55" stop-color="#5AE079"/>
<stop offset="0.67" stop-color="#7AE46F"/>
<stop offset="0.79" stop-color="#A1EA64"/>
<stop offset="0.9" stop-color="#CFF157"/>
<stop offset="1" stop-color="#FCF84A"/>
</linearGradient>
<linearGradient id="paint3_linear_7673_127" x1="11.5414" y1="15.3229" x2="22.9254" y2="0.0161957" gradientUnits="userSpaceOnUse">
<stop stop-color="#21D789"/>
<stop offset="0.09" stop-color="#23D986"/>
<stop offset="0.17" stop-color="#2ADE7B"/>
<stop offset="0.25" stop-color="#36E669"/>
<stop offset="0.27" stop-color="#3BEA62"/>
<stop offset="0.35" stop-color="#47EB61"/>
<stop offset="0.49" stop-color="#67ED5D"/>
<stop offset="0.69" stop-color="#9AF156"/>
<stop offset="0.92" stop-color="#E0F64D"/>
<stop offset="1" stop-color="#FCF84A"/>
</linearGradient>
<linearGradient id="paint4_linear_7673_127" x1="28.9547" y1="17.2719" x2="6.01339" y2="17.0586" gradientUnits="userSpaceOnUse">
<stop offset="0.39" stop-color="#FCF84A"/>
<stop offset="0.46" stop-color="#ECF74C"/>
<stop offset="0.61" stop-color="#C1F451"/>
<stop offset="0.82" stop-color="#7EEF5A"/>
<stop offset="1" stop-color="#3BEA62"/>
</linearGradient>
</defs>
</svg>
