<svg width="24" height="24" viewBox="0 0 24 24" fill="none" xmlns="http://www.w3.org/2000/svg">
<g clipPath="url(#clip0_7673_106)">
<mask id="mask0_7673_106" style="mask-type:alpha" maskUnits="userSpaceOnUse" x="0" y="0" width="24" height="24">
<path fill-rule="evenodd" clip-rule="evenodd" d="M17.0189 23.8361C17.2098 23.9106 17.414 23.945 17.6188 23.9371C17.8236 23.9293 18.0246 23.8794 18.2093 23.7905L23.1506 21.4128C23.4051 21.2903 23.6199 21.0984 23.7701 20.8592C23.9204 20.6201 24.0001 20.3433 24 20.0609V3.93913C24 3.65669 23.9203 3.37999 23.77 3.14087C23.6196 2.90174 23.4049 2.70991 23.1504 2.58745L18.2097 0.209769C17.9305 0.0754203 17.6164 0.031199 17.311 0.0832273C17.0055 0.135256 16.7238 0.28096 16.5048 0.500169L7.04518 9.12961L2.92486 6.00241C2.73901 5.86127 2.5096 5.78966 2.27646 5.8C2.04332 5.81035 1.82116 5.902 1.64854 6.05905L0.327103 7.26121C0.224149 7.35489 0.141879 7.46902 0.0855544 7.59631C0.0292298 7.7236 9.05673e-05 7.86124 2.10783e-07 8.00044C-9.01458e-05 8.13963 0.0288704 8.27731 0.0850296 8.40467C0.141189 8.53204 0.223311 8.64628 0.326143 8.74009L3.89926 12L0.326383 15.2599C0.223551 15.3537 0.141429 15.468 0.0852696 15.5953C0.0291104 15.7227 0.000149854 15.8604 0.000240211 15.9996C0.000330567 16.1388 0.0294698 16.2764 0.0857944 16.4037C0.142119 16.531 0.224389 16.6451 0.327343 16.7388L1.64878 17.9412C1.8214 18.0983 2.04356 18.1899 2.2767 18.2003C2.50984 18.2106 2.73925 18.139 2.9251 17.9978L7.04542 14.8702L16.5048 23.5001C16.6511 23.6466 16.826 23.761 17.0189 23.8361ZM18.0036 6.55201L10.8264 12L18.0038 17.4482L18.0036 6.55201Z" fill="white"/>
</mask>
<g mask="url(#mask0_7673_106)">
<path d="M23.1506 2.59084L18.2057 0.210037C17.9264 0.0755745 17.6122 0.0312239 17.3067 0.0831206C17.0011 0.135017 16.7192 0.280596 16.5 0.499717L0.311733 15.2597C0.208868 15.3535 0.126716 15.4677 0.070536 15.5951C0.0143556 15.7225 -0.0146165 15.8602 -0.0145262 15.9994C-0.0144358 16.1386 0.014715 16.2762 0.0710608 16.4035C0.127407 16.5308 0.209706 16.6449 0.312693 16.7386L1.63509 17.9408C1.80786 18.0977 2.03008 18.1893 2.26326 18.1996C2.49645 18.21 2.72591 18.1384 2.91189 17.9974L22.4066 3.2086C23.0606 2.71252 24 3.17884 24 3.99988V3.94228C23.9999 3.65995 23.9202 3.38337 23.7699 3.14434C23.6197 2.90531 23.405 2.71354 23.1506 2.59108V2.59084Z" fill="#0065A9"/>
<g filter="url(#filter0_d_7673_106)">
<path d="M23.1506 21.4086L18.2057 23.7894C17.9264 23.9239 17.6122 23.9683 17.3067 23.9164C17.0011 23.8645 16.7192 23.7189 16.5 23.4997L0.311733 8.73974C0.208868 8.64594 0.126716 8.53171 0.070536 8.40435C0.0143556 8.27698 -0.0146165 8.13929 -0.0145262 8.00008C-0.0144358 7.86088 0.014715 7.72323 0.0710608 7.59593C0.127407 7.46864 0.209706 7.35451 0.312693 7.26086L1.63509 6.0587C1.80786 5.90174 2.03008 5.81016 2.26326 5.79981C2.49645 5.78947 2.72591 5.86101 2.91189 6.00206L22.4066 20.7909C23.0606 21.2869 24 20.8206 24 19.9996V20.0572C23.9999 20.3395 23.9202 20.6161 23.7699 20.8551C23.6197 21.0941 23.405 21.2862 23.1506 21.4086Z" fill="#007ACC"/>
</g>
<g filter="url(#filter1_d_7673_106)">
<path d="M18.2059 23.79C17.9265 23.9244 17.6123 23.9686 17.3067 23.9166C17.0011 23.8645 16.7192 23.7188 16.5 23.4996C17.0534 24.0533 18 23.6614 18 22.8785V1.12105C18 0.338172 17.0534 -0.0537476 16.5 0.499692C16.7192 0.280463 17.0011 0.134761 17.3067 0.0827361C17.6123 0.0307114 17.9265 0.0749357 18.2059 0.209292L23.1499 2.58721C23.4045 2.70961 23.6194 2.90141 23.7698 3.14054C23.9202 3.37967 24 3.6564 24 3.93889V20.0607C24 20.3432 23.9203 20.6199 23.7699 20.8591C23.6196 21.0983 23.4047 21.2901 23.1502 21.4126L18.2059 23.79Z" fill="#1F9CF0"/>
</g>
<path style="mix-blend-mode:overlay" opacity="0.25" fill-rule="evenodd" clip-rule="evenodd" d="M17.0042 23.8361C17.1951 23.9106 17.3994 23.9449 17.6042 23.9371C17.8089 23.9292 18.0099 23.8793 18.1946 23.7905L23.136 21.4128C23.3905 21.2903 23.6053 21.0985 23.7556 20.8593C23.9059 20.6201 23.9856 20.3434 23.9856 20.0609V3.93913C23.9856 3.65669 23.9058 3.37999 23.7555 3.14087C23.6052 2.90174 23.3905 2.70991 23.136 2.58745L18.1949 0.209769C17.9156 0.0754203 17.6016 0.031199 17.2961 0.0832273C16.9906 0.135256 16.7089 0.28096 16.4899 0.500169L7.03053 9.12961L2.91021 6.00241C2.72438 5.86133 2.49503 5.78976 2.26194 5.8001C2.02885 5.81045 1.80674 5.90206 1.63413 6.05905L0.312454 7.26121C0.2095 7.35489 0.12723 7.46902 0.0709059 7.59631C0.0145814 7.7236 -0.0145579 7.86124 -0.0146482 8.00044C-0.0147386 8.13963 0.014222 8.27731 0.0703812 8.40467C0.12654 8.53204 0.208662 8.64628 0.311494 8.74009L3.88461 12L0.311494 15.2599C0.208662 15.3537 0.12654 15.468 0.0703812 15.5953C0.014222 15.7227 -0.0147386 15.8604 -0.0146482 15.9996C-0.0145579 16.1388 0.0145814 16.2764 0.0709059 16.4037C0.12723 16.531 0.2095 16.6451 0.312454 16.7388L1.63413 17.941C1.80674 18.098 2.02885 18.1896 2.26194 18.1999C2.49503 18.2103 2.72438 18.1387 2.91021 17.9976L7.03053 14.8704L16.4899 23.5003C16.6362 23.6468 16.8113 23.761 17.0042 23.8361ZM17.9889 6.55201L10.8115 12L17.9889 17.4482V6.55201Z" fill="url(#paint0_linear_7673_106)"/>
</g>
</g>
<defs>
<filter id="filter0_d_7673_106" x="-8.34853" y="-2.53517" width="40.6825" height="34.8067" filterUnits="userSpaceOnUse" color-interpolation-filters="sRGB">
<feFlood flood-opacity="0" result="BackgroundImageFix"/>
<feColorMatrix in="SourceAlpha" type="matrix" values="0 0 0 0 0 0 0 0 0 0 0 0 0 0 0 0 0 0 127 0" result="hardAlpha"/>
<feOffset/>
<feGaussianBlur stdDeviation="4.167"/>
<feColorMatrix type="matrix" values="0 0 0 0 0 0 0 0 0 0 0 0 0 0 0 0 0 0 0.25 0"/>
<feBlend mode="overlay" in2="BackgroundImageFix" result="effect1_dropShadow_7673_106"/>
<feBlend mode="normal" in="SourceGraphic" in2="effect1_dropShadow_7673_106" result="shape"/>
</filter>
<filter id="filter1_d_7673_106" x="8.166" y="-8.27248" width="24.168" height="40.5445" filterUnits="userSpaceOnUse" color-interpolation-filters="sRGB">
<feFlood flood-opacity="0" result="BackgroundImageFix"/>
<feColorMatrix in="SourceAlpha" type="matrix" values="0 0 0 0 0 0 0 0 0 0 0 0 0 0 0 0 0 0 127 0" result="hardAlpha"/>
<feOffset/>
<feGaussianBlur stdDeviation="4.167"/>
<feColorMatrix type="matrix" values="0 0 0 0 0 0 0 0 0 0 0 0 0 0 0 0 0 0 0.25 0"/>
<feBlend mode="overlay" in2="BackgroundImageFix" result="effect1_dropShadow_7673_106"/>
<feBlend mode="normal" in="SourceGraphic" in2="effect1_dropShadow_7673_106" result="shape"/>
</filter>
<linearGradient id="paint0_linear_7673_106" x1="11.9853" y1="0.0619293" x2="11.9853" y2="23.9381" gradientUnits="userSpaceOnUse">
<stop stop-color="white"/>
<stop offset="1" stop-color="white" stop-opacity="0"/>
</linearGradient>
<clipPath id="clip0_7673_106">
<rect width="24" height="24" fill="white"/>
</clipPath>
</defs>
</svg>
