<svg width="32" height="32" viewBox="0 0 32 32" fill="none" xmlns="http://www.w3.org/2000/svg">
<path d="M29.3333 4H21.3333C19.9188 4 18.5623 4.5619 17.5621 5.5621C16.5619 6.56229 16 7.91885 16 9.33333V28C16 26.9391 16.4214 25.9217 17.1716 25.1716C17.9217 24.4214 18.9391 24 20 24H29.3333V4Z" stroke="url(#paint0_linear_7629_1064)" stroke-width="4" stroke-linecap="round" stroke-linejoin="round"/>
<path d="M2.66663 4H10.6666C12.0811 4 13.4377 4.5619 14.4379 5.5621C15.4381 6.56229 16 7.91885 16 9.33333V28C16 26.9391 15.5785 25.9217 14.8284 25.1716C14.0782 24.4214 13.0608 24 12 24H2.66663V4Z" stroke="url(#paint1_linear_7629_1064)" stroke-width="4" stroke-linecap="round" stroke-linejoin="round"/>
<defs>
<linearGradient id="paint0_linear_7629_1064" x1="22.6667" y1="4" x2="22.6667" y2="28" gradientUnits="userSpaceOnUse">
<stop stop-color="#F8F7F8"/>
<stop offset="1" stop-color="#DAABF0"/>
</linearGradient>
<linearGradient id="paint1_linear_7629_1064" x1="9.33329" y1="4" x2="9.33329" y2="28" gradientUnits="userSpaceOnUse">
<stop stop-color="#F8F7F8"/>
<stop offset="1" stop-color="#DAABF0"/>
</linearGradient>
</defs>
</svg>
