<svg width="24" height="24" viewBox="0 0 24 24" fill="none" xmlns="http://www.w3.org/2000/svg">
<g clip-path="url(#clip0_7673_124)">
<path fill-rule="evenodd" clip-rule="evenodd" d="M21.0427 4.8974L13.464 0.398905C13.0237 0.137478 12.5211 -0.000488281 12.009 -0.000488281C11.4969 -0.000488281 10.9943 0.137478 10.554 0.398905L2.97373 4.8974C2.52322 5.16622 2.15043 5.54767 1.89203 6.00425C1.63363 6.46082 1.49852 6.97678 1.49998 7.5014V16.4984C1.4972 17.0218 1.63038 17.5369 1.88648 17.9934C2.14259 18.4499 2.51284 18.832 2.96098 19.1024L10.5397 23.6009C10.98 23.8623 11.4827 24.0003 11.9947 24.0003C12.5068 24.0003 13.0094 23.8623 13.4497 23.6009L21.03 19.1024C21.4781 18.832 21.8484 18.4499 22.1045 17.9934C22.3606 17.5369 22.4938 17.0218 22.491 16.4984V7.5014C22.4952 6.9793 22.364 6.46502 22.1104 6.00867C21.8567 5.55232 21.4891 5.16946 21.0435 4.8974H21.0427ZM15.1725 18.9464V19.5914C15.172 19.6312 15.1616 19.6702 15.1422 19.7049C15.1228 19.7396 15.0951 19.7689 15.0615 19.7902L14.6775 20.0099C14.6175 20.0414 14.5665 20.0099 14.5665 19.9252V19.2899C14.2954 19.4231 13.9851 19.4532 13.6935 19.3747C13.647 19.3432 13.629 19.2832 13.6515 19.2247L13.7887 18.6397C13.8002 18.5902 13.827 18.5456 13.8652 18.5122C13.8761 18.5013 13.8888 18.4925 13.9027 18.4859C13.922 18.4784 13.9434 18.4784 13.9627 18.4859C14.2304 18.5578 14.5156 18.5217 14.757 18.3854C14.9284 18.3017 15.074 18.1731 15.1783 18.0133C15.2826 17.8536 15.3418 17.6686 15.3495 17.4779C15.3495 17.1494 15.1695 17.0129 14.7345 17.0092C14.184 17.0092 13.6845 16.9042 13.662 16.0912C13.6683 15.7441 13.7513 15.4027 13.9051 15.0915C14.0589 14.7803 14.2796 14.507 14.5515 14.2912V13.6372C14.553 13.5973 14.5638 13.5584 14.5831 13.5235C14.6024 13.4885 14.6296 13.4586 14.6625 13.4362L15.033 13.2007C15.093 13.1692 15.144 13.2007 15.144 13.2877V13.9417C15.371 13.8385 15.6243 13.8081 15.8692 13.8547C15.9217 13.8847 15.9427 13.9507 15.9172 14.0047L15.7875 14.5844C15.7728 14.6445 15.7358 14.6968 15.684 14.7307C15.669 14.7397 15.6465 14.7367 15.6285 14.7307C15.3897 14.6784 15.14 14.7191 14.9302 14.8447C14.7772 14.9106 14.6462 15.0188 14.5524 15.1566C14.4587 15.2943 14.406 15.4559 14.4007 15.6224C14.4007 15.9187 14.5567 16.0087 15.081 16.0199C15.7822 16.0199 16.0837 16.3372 16.092 17.0414C16.0854 17.4056 15.9996 17.7639 15.8405 18.0916C15.6815 18.4193 15.453 18.7084 15.171 18.9389L15.1725 18.9464ZM19.1422 17.8589C19.1468 17.8862 19.1437 17.9142 19.1334 17.9399C19.1231 17.9655 19.1059 17.9879 19.0837 18.0044L17.175 19.1684C17.157 19.1834 17.13 19.1857 17.1097 19.1737C17.0895 19.1617 17.0797 19.1362 17.085 19.1137V18.6187C17.0863 18.5922 17.0952 18.5667 17.1106 18.5451C17.126 18.5236 17.1473 18.5069 17.172 18.4972L19.059 17.3669C19.077 17.3519 19.104 17.3497 19.1242 17.3617C19.1445 17.3737 19.1542 17.3992 19.149 17.4217V17.8582L19.1422 17.8589ZM20.466 6.7949L13.2945 11.2244C12.3997 11.7539 11.742 12.3329 11.742 13.4099V22.2434C11.742 22.8884 12.0067 23.2934 12.4035 23.4284C12.2723 23.4529 12.1394 23.4662 12.006 23.4682C11.5848 23.4672 11.1716 23.353 10.8097 23.1374L3.23098 18.6397C2.86197 18.4182 2.55706 18.1044 2.34636 17.7292C2.13566 17.3539 2.02644 16.9302 2.02948 16.4999V7.5014C2.02608 7.07049 2.13512 6.64614 2.34583 6.27024C2.55653 5.89433 2.86162 5.57988 3.23098 5.3579L10.8097 0.859405C11.5447 0.424405 12.4567 0.424405 13.1917 0.859405L20.7705 5.3579C21.3952 5.7359 21.8205 6.3704 21.9345 7.0829C21.6885 6.54815 21.1222 6.4079 20.463 6.78665H20.4652L20.466 6.7949Z" fill="white"/>
</g>
<defs>
<clipPath id="clip0_7673_124">
<rect width="24" height="24" fill="white"/>
</clipPath>
</defs>
</svg>
