<svg width="24" height="24" viewBox="0 0 24 24" fill="none" xmlns="http://www.w3.org/2000/svg">
<path d="M10.6012 3H13.575V16.6268C12.3056 16.8873 11.0136 17.0217 9.71773 17.028C6.08623 17.0243 4.19623 15.402 4.19623 12.2865C4.19623 9.2865 6.20098 7.3365 9.30823 7.3365C9.74402 7.328 10.179 7.37846 10.6012 7.4865V3ZM10.6012 9.8565C10.2779 9.74986 9.93883 9.69913 9.59848 9.7065C8.09848 9.7065 7.22623 10.6238 7.22623 12.231C7.22623 13.7963 8.05648 14.6603 9.57973 14.6603C9.9216 14.6602 10.263 14.6351 10.6012 14.5853V9.86025V9.8565Z" fill="#44B78B"/>
<path d="M18.3 7.54414V14.3691C18.3 16.7189 18.1237 17.8484 17.6077 18.8226C17.0811 19.8132 16.22 20.5848 15.1778 20.9999L12.4193 19.7001C13.4214 19.357 14.2607 18.6545 14.775 17.7284C15.1995 16.8876 15.3338 15.9134 15.3338 13.3506V7.54414H18.3ZM15.3308 3.01489H18.3038V6.03589H15.3308V3.01489Z" fill="#44B78B"/>
</svg>
