<svg width="39" height="39" viewBox="0 0 39 39" fill="none" xmlns="http://www.w3.org/2000/svg">
<g clip-path="url(#clip0_7673_141)">
<path d="M22.7175 18.005H26.1625C26.203 18.005 26.2432 17.997 26.2806 17.9815C26.3181 17.966 26.3521 17.9432 26.3808 17.9146C26.4094 17.8859 26.4322 17.8519 26.4477 17.8144C26.4632 17.7769 26.4712 17.7368 26.4712 17.6963V14.6413C26.4712 14.6007 26.4632 14.5606 26.4477 14.5231C26.4322 14.4856 26.4094 14.4516 26.3808 14.4229C26.3521 14.3943 26.3181 14.3715 26.2806 14.356C26.2432 14.3405 26.203 14.3325 26.1625 14.3325H22.7175C22.6399 14.3325 22.5655 14.3633 22.5106 14.4182C22.4558 14.473 22.425 14.5474 22.425 14.625V17.7125C22.425 17.875 22.555 18.005 22.7175 18.005ZM17.9237 9.18125H21.3687C21.4477 9.17709 21.5222 9.14273 21.5766 9.08527C21.631 9.02781 21.6613 8.95165 21.6612 8.8725V5.80125C21.6573 5.72495 21.6252 5.6528 21.5712 5.59878C21.5172 5.54475 21.445 5.51267 21.3687 5.50875H17.9237C17.8839 5.50654 17.8442 5.51247 17.8068 5.52617C17.7694 5.53988 17.7352 5.56107 17.7063 5.58846C17.6774 5.61584 17.6544 5.64884 17.6387 5.68543C17.623 5.72202 17.6149 5.76143 17.615 5.80125V8.88875C17.615 9.05125 17.7612 9.18125 17.9237 9.18125ZM17.9237 13.585H21.3687C21.445 13.5811 21.5172 13.549 21.5712 13.495C21.6252 13.441 21.6573 13.3688 21.6612 13.2925V10.2213C21.6573 10.1449 21.6252 10.0728 21.5712 10.0188C21.5172 9.96475 21.445 9.93267 21.3687 9.92875H17.9237C17.8839 9.92654 17.8442 9.93247 17.8068 9.94617C17.7694 9.95988 17.7352 9.98107 17.7063 10.0085C17.6774 10.0358 17.6544 10.0688 17.6387 10.1054C17.623 10.142 17.6149 10.1814 17.615 10.2213V13.2925C17.615 13.455 17.7612 13.585 17.9237 13.585ZM13.1625 13.585H16.6075C16.6838 13.5811 16.7559 13.549 16.8099 13.495C16.864 13.441 16.896 13.3688 16.9 13.2925V10.2213C16.9 10.1437 16.8691 10.0693 16.8143 10.0144C16.7594 9.95957 16.685 9.92875 16.6075 9.92875H13.1625C13.0849 9.92875 13.0105 9.95957 12.9556 10.0144C12.9008 10.0693 12.87 10.1437 12.87 10.2213V13.2925C12.87 13.455 13 13.585 13.1625 13.585ZM8.35246 13.585H11.7812C11.8604 13.5851 11.9365 13.5548 11.994 13.5004C12.0514 13.446 12.0858 13.3715 12.09 13.2925V10.2213C12.09 10.1814 12.0819 10.142 12.0662 10.1054C12.0505 10.0688 12.0275 10.0358 11.9986 10.0085C11.9697 9.98107 11.9355 9.95988 11.8981 9.94617C11.8608 9.93247 11.821 9.92654 11.7812 9.92875H8.35246C8.27331 9.92864 8.19714 9.95893 8.13969 10.0134C8.08223 10.0678 8.04787 10.1422 8.04371 10.2213V13.2925C8.04371 13.455 8.17371 13.585 8.35246 13.585ZM17.9237 18.005H21.3687C21.4477 18.0008 21.5222 17.9665 21.5766 17.909C21.631 17.8516 21.6613 17.7754 21.6612 17.6963V14.6413C21.6613 14.5621 21.631 14.4859 21.5766 14.4285C21.5222 14.371 21.4477 14.3367 21.3687 14.3325H17.9237C17.8839 14.3303 17.8442 14.3362 17.8068 14.3499C17.7694 14.3636 17.7352 14.3848 17.7063 14.4122C17.6774 14.4396 17.6544 14.4726 17.6387 14.5092C17.623 14.5458 17.6149 14.5852 17.615 14.625V17.7125C17.615 17.875 17.7612 18.005 17.9237 18.005ZM13.1625 18.005H16.6075C16.6473 18.0051 16.6867 17.997 16.7233 17.9813C16.7599 17.9656 16.7929 17.9426 16.8202 17.9137C16.8476 17.8848 16.8688 17.8506 16.8825 17.8132C16.8962 17.7758 16.9022 17.736 16.9 17.6963V14.6413C16.9022 14.6015 16.8962 14.5617 16.8825 14.5243C16.8688 14.4869 16.8476 14.4527 16.8202 14.4238C16.7929 14.3949 16.7599 14.3719 16.7233 14.3562C16.6867 14.3405 16.6473 14.3324 16.6075 14.3325H13.1625C13.0849 14.3325 13.0105 14.3633 12.9556 14.4182C12.9008 14.473 12.87 14.5474 12.87 14.625V17.7125C12.87 17.875 13 18.005 13.1625 18.005ZM8.35246 18.005H11.7812C11.8224 18.0074 11.8636 18.001 11.9021 17.9863C11.9406 17.9716 11.9756 17.949 12.0048 17.9198C12.0339 17.8907 12.0566 17.8557 12.0713 17.8171C12.0859 17.7786 12.0923 17.7374 12.09 17.6963V14.6413C12.0922 14.6015 12.0862 14.5617 12.0725 14.5243C12.0588 14.4869 12.0376 14.4527 12.0102 14.4238C11.9829 14.3949 11.9499 14.3719 11.9133 14.3562C11.8767 14.3405 11.8373 14.3324 11.7975 14.3325H8.35246C8.27057 14.3325 8.19204 14.365 8.13414 14.4229C8.07623 14.4808 8.04371 14.5594 8.04371 14.6413V17.6963C8.04371 17.8588 8.17371 18.005 8.35246 18.005ZM3.60746 18.005H7.05246C7.09227 18.0051 7.13169 17.997 7.16828 17.9813C7.20487 17.9656 7.23786 17.9426 7.26525 17.9137C7.29263 17.8848 7.31383 17.8506 7.32753 17.8132C7.34124 17.7758 7.34717 17.736 7.34496 17.6963V14.6413C7.34717 14.6015 7.34124 14.5617 7.32753 14.5243C7.31383 14.4869 7.29263 14.4527 7.26525 14.4238C7.23786 14.3949 7.20487 14.3719 7.16828 14.3562C7.13169 14.3405 7.09227 14.3324 7.05246 14.3325H3.60746C3.5677 14.3303 3.52791 14.3362 3.49053 14.3499C3.45314 14.3636 3.41895 14.3848 3.39004 14.4122C3.36113 14.4396 3.33812 14.4726 3.32242 14.5092C3.30671 14.5458 3.29864 14.5852 3.29871 14.625V17.7125C3.29871 17.875 3.42871 18.005 3.60746 18.005ZM38.61 16.0713C38.5125 15.99 37.5212 15.2425 35.4412 15.2425C34.8887 15.2425 34.3362 15.2913 33.8 15.3888C33.6558 14.5346 33.3322 13.7207 32.8504 13.0009C32.3686 12.281 31.7396 11.6714 31.005 11.2125L30.4525 10.8875L30.0787 11.4238C29.6245 12.1376 29.2949 12.9233 29.1037 13.7475C28.7137 15.3238 28.9412 16.8025 29.7537 18.07C28.8586 18.4786 27.893 18.7103 26.91 18.7525H1.23496C1.07355 18.7504 0.913315 18.7803 0.763569 18.8406C0.613823 18.9009 0.477544 18.9903 0.362646 19.1037C0.247748 19.2171 0.15652 19.3521 0.0942579 19.5011C0.0319963 19.65 -5.78408e-05 19.8098 -4.34913e-05 19.9713C-0.0254325 22.2213 0.36005 24.4571 1.13746 26.5688C1.83372 28.6474 3.20692 30.4326 5.03746 31.6388C6.95496 32.825 10.075 33.4913 13.6175 33.4913C15.21 33.4913 16.8025 33.3613 18.3787 33.0688C20.5602 32.6617 22.6583 31.8928 24.5862 30.7938C26.177 29.8758 27.6092 28.707 28.8275 27.3325C30.8587 25.025 32.0775 22.4575 32.9712 20.1825H33.345C35.5712 20.1825 36.9362 19.2888 37.7 18.5575C38.1875 18.07 38.5937 17.485 38.8375 16.835L39 16.38L38.61 16.0713Z" fill="#008FE2"/>
</g>
<defs>
<clipPath id="clip0_7673_141">
<rect width="39" height="39" fill="white"/>
</clipPath>
</defs>
</svg>
