<svg width="16" height="24" viewBox="0 0 16 24" fill="none" xmlns="http://www.w3.org/2000/svg">
<g clip-path="url(#clip0_7629_1250)">
<mask id="mask0_7629_1250" style="mask-type:luminance" maskUnits="userSpaceOnUse" x="0" y="0" width="16" height="24">
<path d="M15.8025 0H0V24H15.8025V0Z" fill="white"/>
</mask>
<g mask="url(#mask0_7629_1250)">
<path d="M3.95061 24C6.13135 24 7.90124 22.208 7.90124 20V16H3.95061C1.76988 16 0 17.792 0 20C0 22.208 1.76988 24 3.95061 24Z" fill="#0ACF83"/>
<path d="M0 12C0 9.79199 1.76988 8 3.95061 8H7.90124V16H3.95061C1.76988 16 0 14.208 0 12Z" fill="#A259FF"/>
<path d="M0 3.99999C0 1.792 1.76988 0 3.95061 0H7.90124V8.00001H3.95061C1.76988 8.00001 0 6.20799 0 3.99999Z" fill="#F24E1E"/>
<path d="M7.90125 0H11.8519C14.0326 0 15.8025 1.792 15.8025 3.99999C15.8025 6.20799 14.0326 8.00001 11.8519 8.00001H7.90125V0Z" fill="#FF7262"/>
<path d="M15.8025 12C15.8025 14.208 14.0326 16 11.8519 16C9.67114 16 7.90125 14.208 7.90125 12C7.90125 9.79199 9.67114 8 11.8519 8C14.0326 8 15.8025 9.79199 15.8025 12Z" fill="#1ABCFE"/>
</g>
</g>
<defs>
<clipPath id="clip0_7629_1250">
<rect width="16" height="24" fill="white"/>
</clipPath>
</defs>
</svg>
