<svg width="24" height="24" viewBox="0 0 24 24" fill="none" xmlns="http://www.w3.org/2000/svg">
<g clip-path="url(#clip0_7673_118)">
<path d="M23.5472 10.9312L13.0687 0.45182C12.7788 0.162198 12.3858 -0.000488281 11.9761 -0.000488281C11.5663 -0.000488281 11.1733 0.162198 10.8834 0.45182L8.70746 2.62682L11.4675 5.38776C11.793 5.2767 12.1431 5.25937 12.478 5.33774C12.8129 5.41612 13.119 5.58704 13.3614 5.83102C13.6038 6.07499 13.7728 6.38219 13.849 6.71756C13.9252 7.05293 13.9056 7.40298 13.7925 7.72776L16.4522 10.3884C16.8497 10.2517 17.2821 10.2554 17.6772 10.3989C18.0724 10.5423 18.4064 10.8169 18.6237 11.1768C18.841 11.5367 18.9283 11.9602 18.8712 12.3767C18.8141 12.7932 18.616 13.1775 18.3099 13.4656C18.0038 13.7538 17.6082 13.9283 17.189 13.9601C16.7698 13.9919 16.3524 13.8791 16.0063 13.6405C15.6602 13.4019 15.4063 13.0518 15.287 12.6487C15.1677 12.2456 15.1901 11.8138 15.3506 11.4253L12.87 8.9437V15.4724C13.247 15.6589 13.5488 15.9689 13.7249 16.3509C13.9011 16.7328 13.941 17.1636 13.8381 17.5715C13.7351 17.9793 13.4955 18.3395 13.1592 18.5921C12.8228 18.8447 12.4101 18.9743 11.9897 18.9595C11.5693 18.9446 11.1668 18.7862 10.8491 18.5105C10.5314 18.2348 10.3178 17.8585 10.2439 17.4445C10.17 17.0304 10.2402 16.6035 10.4429 16.2349C10.6456 15.8663 10.9685 15.5784 11.3578 15.419V8.83119C11.1332 8.73919 10.929 8.60362 10.7571 8.43231C10.5852 8.261 10.4489 8.05735 10.3561 7.83309C10.2632 7.60884 10.2157 7.36843 10.2163 7.12572C10.2169 6.88302 10.2655 6.64283 10.3593 6.41901L7.63684 3.69744L0.452777 10.8824C0.162868 11.1724 0 11.5656 0 11.9756C0 12.3856 0.162868 12.7788 0.452777 13.0687L10.9312 23.5471C11.2211 23.837 11.6143 23.9999 12.0243 23.9999C12.4343 23.9999 12.8275 23.837 13.1175 23.5471L23.5472 13.1174C23.8371 12.8274 24 12.434 24 12.0239C24 11.6137 23.8371 11.2203 23.5472 10.9303" fill="#DE4C36"/>
</g>
<defs>
<clipPath id="clip0_7673_118">
<rect width="24" height="24" fill="white"/>
</clipPath>
</defs>
</svg>
