<svg width="20" height="24" viewBox="0 0 20 24" fill="none" xmlns="http://www.w3.org/2000/svg">
<g clipPath="url(#clip0_7629_1203)">
<path d="M1.81416 21.2308L0 0H19.9558L18.1416 21.2308L9.95575 23.6308" fill="#E34F26"/>
<path d="M10 21.7847L16.5929 19.8924L18.1416 1.70776H10" fill="#EF652A"/>
<path d="M9.99998 9.59992H6.6814L6.46016 6.92299H9.99998V4.33838H3.7168L4.38051 12.2307H9.99998V9.59992ZM9.99998 16.3845L7.16812 15.5999L6.99113 13.523H4.51326L4.82299 17.6307L9.99998 19.1076V16.3845Z" fill="#ECEDEE"/>
<path d="M10 12.2307H13.0531L12.7434 15.5999L10 16.3845V19.1076L15.0885 17.6307L15.7965 9.59992H10V12.2307ZM10 4.33838V6.92299H16.0177L16.2389 4.33838H10Z" fill="white"/>
</g>
<defs>
<clipPath id="clip0_7629_1203">
<rect width="20" height="24" fill="white"/>
</clipPath>
</defs>
</svg>
