<svg width="18" height="24" viewBox="0 0 18 24" fill="none" xmlns="http://www.w3.org/2000/svg">
<g clipPath="url(#clip0_7670_106)">
<path d="M5.83603 18.5203C5.83603 18.5203 4.85165 19.0752 6.46884 19.2833C8.36728 19.4914 9.35165 19.4221 11.461 19.0752C11.461 19.0752 12.0235 19.4221 12.797 19.6995C8.08603 21.7111 2.03915 19.5608 5.83603 18.5203ZM5.20321 15.9539C5.20321 15.9539 4.14853 16.7169 5.76571 16.8556C7.80478 17.0637 9.42196 17.0637 12.2345 16.5781C12.2345 16.5781 12.6563 16.925 13.2892 17.133C7.52353 18.7978 1.12509 17.2718 5.20321 15.9539Z" fill="#5382A1"/>
<path d="M10.1251 11.5144C11.3204 12.8323 9.84385 14.0115 9.84385 14.0115C9.84385 14.0115 12.797 12.4855 11.3907 10.6127C10.1251 8.8092 9.14073 7.97683 14.4845 4.9248C14.4845 4.9248 6.11729 6.93637 10.1251 11.5144Z" fill="#E76F00"/>
<path d="M16.3828 20.4623C16.3828 20.4623 17.0859 21.0173 15.6796 21.5028C12.9374 22.3352 4.21869 22.5433 1.82807 21.5028C0.984318 21.156 2.60151 20.6011 3.09369 20.5317L3.93744 20.393C2.95307 19.7687 -2.32037 21.7109 1.26557 22.3352C10.9687 23.8612 18.914 21.6415 16.3828 20.4623ZM6.25776 13.1791C6.25776 13.1791 1.82807 14.2196 4.71088 14.6358C5.90619 14.7745 8.29682 14.7745 10.5468 14.5664C12.3749 14.4277 14.2031 14.0808 14.2031 14.0808L13.0781 14.7051C8.57807 15.8149 -0.0703697 15.26 2.46088 14.0808C4.57026 13.1097 6.25776 13.1791 6.25776 13.1791ZM14.2031 17.549C18.7031 15.26 16.5937 12.971 15.1171 13.3178L14.6249 13.4566C14.6249 13.4566 14.7656 13.2485 15.0468 13.1097C17.9296 12.1386 20.1796 16.0924 14.0624 17.6878L14.2031 17.549Z" fill="#5382A1"/>
<path d="M11.3906 0C11.3906 0 13.9218 2.49711 8.99993 6.31214C5.06243 9.43353 8.15618 11.1676 8.99993 13.1792C6.74993 11.0983 5.06243 9.2948 6.18743 7.63006C7.80462 5.20231 12.4452 3.95376 11.3906 0Z" fill="#E76F00"/>
<path d="M6.67969 23.9306C11.0391 24.208 17.7891 23.7225 17.9297 21.7109C17.9297 21.7109 17.6484 22.4739 14.3438 23.0982C10.6172 23.7919 5.97656 23.7225 3.23438 23.2369C3.23438 23.2369 3.79688 23.7225 6.67969 23.9306Z" fill="#5382A1"/>
</g>
<defs>
<clipPath id="clip0_7670_106">
<rect width="18" height="24" fill="white"/>
</clipPath>
</defs>
</svg>
