<svg width="23" height="24" viewBox="0 0 23 24" fill="none" xmlns="http://www.w3.org/2000/svg">
<g clipPath="url(#clip0_7670_118)">
<path d="M22.991 5.41818L23 5.51818V10.6636C23 10.7909 22.9281 10.9182 22.8203 10.9818L18.5437 13.4727V18.4C18.5437 18.5273 18.4808 18.6545 18.364 18.7182L9.4605 23.9L9.39761 23.9364L9.37065 23.9455C9.30776 23.9636 9.24487 23.9636 9.18198 23.9455L9.14605 23.9364L9.09214 23.9091L0.179639 18.7273C0.0628418 18.6545 -0.0090332 18.5273 -0.0090332 18.4V2.97273L-4.8828e-05 2.87273L0.0179199 2.83636L0.044873 2.78182L0.0628418 2.74545L0.0987793 2.7L0.134717 2.67273C0.152686 2.67273 0.16167 2.65455 0.179639 2.64545L4.63589 0.0545455C4.75269 -0.0181818 4.89644 -0.0181818 5.00425 0.0545455L9.4605 2.63636C9.47847 2.63636 9.48745 2.65455 9.49644 2.66364L9.54136 2.69091C9.54136 2.70909 9.55933 2.72727 9.56831 2.73636L9.59526 2.77273L9.62222 2.82727L9.6312 2.86364L9.64917 2.95455V12.5909L13.3507 10.4364V5.51818C13.3507 5.48182 13.3507 5.45455 13.3687 5.42727L13.3777 5.39091L13.4046 5.32727L13.4316 5.3L13.4585 5.25455L13.5035 5.22727L13.5394 5.19091L17.9957 2.6C18.1035 2.53636 18.2472 2.53636 18.355 2.6L22.8203 5.18182L22.8652 5.21818L22.9011 5.24545L22.9371 5.29091L22.955 5.31818C22.973 5.33636 22.973 5.36364 22.982 5.38182L23 5.40909L22.991 5.41818ZM22.2542 10.4455V6.17273L20.7 7.08182L18.5437 8.32727V12.6L22.2542 10.4455ZM17.807 18.1727V13.9L15.6867 15.1273L9.64917 18.6182V22.9364L17.807 18.1818V18.1727ZM0.73667 3.62727V18.1818L8.90347 22.9364V18.6182L4.63589 16.1727L4.59995 16.1364C4.58198 16.1364 4.573 16.1273 4.56401 16.1091L4.52808 16.0727L4.50112 16.0364L4.48315 15.9909L4.46519 15.9455V15.8909L4.44722 15.8455V5.78182L2.29995 4.52727L0.745654 3.61818L0.73667 3.62727ZM4.82456 0.809091L1.11401 2.98182L4.82456 5.13636L8.52612 2.98182L4.82456 0.809091ZM6.73823 14.3L8.89448 13.0455V3.61818L7.34019 4.52727L5.18394 5.78182V15.2L6.73823 14.2909V14.3ZM18.1753 3.35455L14.4648 5.51818L18.1753 7.68182L21.8859 5.51818L18.1753 3.35455ZM17.807 8.32727L15.6507 7.07273L14.0964 6.16364V10.4364L16.2527 11.7L17.807 12.6091V8.33636V8.32727ZM9.27183 17.9636L14.7164 14.8273L17.4296 13.2545L13.7281 11.0909L9.4605 13.5818L5.57026 15.8455L9.27183 17.9636Z" fill="#FF2D20"/>
</g>
<defs>
<clipPath id="clip0_7670_118">
<rect width="23" height="24" fill="white"/>
</clipPath>
</defs>
</svg>
