<svg width="24" height="24" viewBox="0 0 24 24" fill="none" xmlns="http://www.w3.org/2000/svg">
<g clipPath="url(#clip0_7670_161)">
<path d="M22.1251 18.4761C20.8126 18.4761 19.7814 18.5713 18.9376 18.9523C18.6564 19.0475 18.2814 19.0475 18.2814 19.3332L18.5626 19.9047C18.7501 20.1904 19.0314 20.6666 19.4064 20.9523L20.4376 21.7142L22.4064 22.6666L23.4376 23.5237L24.0001 23.9047L23.7189 23.3332L23.2501 22.857C22.7814 22.1904 22.2189 21.6189 21.5626 21.1427C21.0001 20.857 19.8751 20.2856 19.6876 19.7142H19.5939L20.7189 19.4285L22.4064 19.1427L23.1564 18.9523V18.7618L22.3126 17.8094C21.5626 17.0475 20.6251 16.3808 19.6876 15.7142L18.0001 14.9523C17.8126 14.857 17.4376 14.7618 17.3439 14.5713L16.6876 13.3332L15.2814 10.4761L14.5314 8.57132C12.8439 5.71417 10.9689 3.99989 8.15636 2.38084C7.59386 1.99989 6.84386 1.90465 6.09386 1.71417L4.87511 1.61894L4.12511 1.04751C3.18761 0.476079 0.750113 -0.857255 0.0938627 0.857031C-0.374887 1.90465 0.750113 2.95227 1.12511 3.5237L1.96886 4.76179L2.25011 5.61894C2.53136 6.38084 2.71886 7.23798 3.09386 7.90465L3.65636 8.85703C3.84386 9.04751 4.03136 9.14275 4.12511 9.42846C3.84386 9.80941 3.84386 10.2856 3.75011 10.6666C3.09386 12.5713 3.37511 14.857 4.21886 16.2856C4.40636 16.6666 5.06261 17.6189 5.90636 17.238C6.65636 16.9523 6.46886 15.9999 6.65636 15.1427L6.75011 14.7618L7.50011 16.0951C7.96886 16.9523 8.81261 17.8094 9.56261 18.3808C9.93761 18.6666 10.3126 19.1427 10.7814 19.3332L10.4064 18.9523L9.56261 17.9999C8.81261 17.0475 8.25011 15.9999 7.68761 14.9523L7.03136 13.3332L6.75011 12.7618C6.46886 13.1427 6.09386 13.4285 5.90636 13.9047C5.62511 14.5713 5.62511 15.5237 5.53136 16.3808H5.43761C4.87511 16.2856 4.68761 15.7142 4.50011 15.238C4.03136 14.0951 3.93761 12.1904 4.40636 10.857C4.50011 10.4761 4.96886 9.42846 4.78136 9.04751C4.68761 8.76179 4.40636 8.57132 4.21886 8.38084L3.56261 7.23798L2.62511 4.38084L1.78136 3.14275C1.50011 2.66656 1.12511 2.38084 0.843863 1.80941C0.750113 1.61894 0.656363 1.33322 0.843863 1.14275L1.03136 0.952269C1.21886 0.761793 1.87511 0.952269 2.06261 1.04751C2.62511 1.33322 3.18761 1.5237 3.65636 1.90465L4.40636 2.47608H4.78136C5.34386 2.57132 5.90636 2.47608 6.37511 2.66655C7.21886 2.95227 8.06261 3.33322 8.71886 3.80941C10.8751 5.14275 12.6564 7.14275 13.7814 9.42846C14.0626 9.80941 14.0626 10.1904 14.2501 10.5713L15.3751 13.0475C15.7501 13.8094 16.0314 14.5713 16.5001 15.238C16.7814 15.6189 17.8126 15.8094 18.1876 15.9999L19.3126 16.3808L21.0001 17.5237C21.1876 17.7142 22.0314 18.1904 22.1251 18.4761Z" fill="white"/>
<path d="M5.4375 4.09521L4.78125 4.19045L5.34375 4.85712L5.71875 5.71426V5.61902C6 5.52379 6.09375 5.23807 6.09375 4.85712L5.90625 4.47617L5.4375 4.09521Z" fill="white"/>
</g>
<defs>
<clipPath id="clip0_7670_161">
<rect width="24" height="24" fill="white"/>
</clipPath>
</defs>
</svg>
