<svg width="21" height="24" viewBox="0 0 21 24" fill="none" xmlns="http://www.w3.org/2000/svg">
<g clip-path="url(#clip0_7680_123)">
<path d="M11.0679 0.150352C10.7116 -0.0504428 10.2884 -0.0504428 9.9321 0.150352L0.556746 5.57246C0.200402 5.77326 0 6.15257 0 6.55416V17.4206C0 17.8222 0.222715 18.2016 0.556746 18.4024L9.9321 23.8244C10.2884 24.0253 10.7116 24.0253 11.0679 23.8244L20.4433 18.4024C20.7996 18.2016 21 17.8222 21 17.4206V6.55416C21 6.15257 20.7773 5.77326 20.4433 5.57246L11.0679 0.150352Z" fill="url(#paint0_linear_7680_123)"/>
<mask id="mask0_7680_123" style="mask-type:luminance" maskUnits="userSpaceOnUse" x="0" y="-1" width="21" height="25">
<path d="M11.0679 0.150352C10.7116 -0.0504428 10.2884 -0.0504428 9.9321 0.150352L0.556746 5.57246C0.200402 5.77326 0 6.15257 0 6.55416V17.4206C0 17.8222 0.222715 18.2016 0.556746 18.4024L9.9321 23.8244C10.2884 24.0253 10.7116 24.0253 11.0679 23.8244L20.4433 18.4024C20.7996 18.2016 21 17.8222 21 17.4206V6.55416C21 6.15257 20.7773 5.77326 20.4433 5.57246L11.0679 0.150352Z" fill="white"/>
</mask>
<g mask="url(#mask0_7680_123)">
<path d="M20.4655 5.57254L11.0455 0.150597C10.9564 0.106049 10.8451 0.0614187 10.756 0.0390625L0.200378 18.1571C0.289464 18.2686 0.400863 18.3579 0.512097 18.4249L9.93207 23.8469C10.1993 24.0031 10.5111 24.0477 10.8006 23.9584L20.7104 5.79569C20.6436 5.70643 20.5545 5.63953 20.4655 5.57262L20.4655 5.57254Z" fill="url(#paint1_linear_7680_123)"/>
</g>
<mask id="mask1_7680_123" style="mask-type:luminance" maskUnits="userSpaceOnUse" x="0" y="0" width="21" height="24">
<path d="M11.0679 0.150596C10.7116 -0.0501986 10.2884 -0.0501986 9.9321 0.150596L0.556746 5.57271C0.200402 5.7735 0 6.15282 0 6.5544V17.4208C0 17.8225 0.222715 18.2018 0.556746 18.4026L9.9321 23.8246C10.2884 24.0255 10.7116 24.0255 11.0679 23.8246L20.4433 18.4026C20.7996 18.2018 21 17.8225 21 17.4208V6.5544C21 6.15282 20.7773 5.7735 20.4433 5.57271L11.0679 0.150596Z" fill="white"/>
</mask>
<g mask="url(#mask1_7680_123)">
<path d="M20.4878 18.4025C20.755 18.2463 20.9554 17.9785 21.0445 17.6885L10.7115 0.0166528C10.4443 -0.0279773 10.1548 -0.00570337 9.90984 0.150461L0.556641 5.5503L10.6448 23.9808C10.7783 23.9585 10.9343 23.9138 11.0679 23.8468L20.4878 18.4025V18.4025Z" fill="url(#paint2_linear_7680_123)"/>
</g>
</g>
<defs>
<linearGradient id="paint0_linear_7680_123" x1="1431.95" y1="419.255" x2="401.429" y2="2035.3" gradientUnits="userSpaceOnUse">
<stop stop-color="#41873F"/>
<stop offset="0.3288" stop-color="#418B3D"/>
<stop offset="0.6352" stop-color="#419637"/>
<stop offset="0.9319" stop-color="#3FA92D"/>
<stop offset="1" stop-color="#3FAE2A"/>
</linearGradient>
<linearGradient id="paint1_linear_7680_123" x1="887.813" y1="1322.16" x2="3463.72" y2="-74.6093" gradientUnits="userSpaceOnUse">
<stop offset="0.1376" stop-color="#41873F"/>
<stop offset="0.4032" stop-color="#54A044"/>
<stop offset="0.7136" stop-color="#66B848"/>
<stop offset="0.9081" stop-color="#6CC04A"/>
</linearGradient>
<linearGradient id="paint2_linear_7680_123" x1="-89.3647" y1="1199.15" x2="2080.06" y2="1199.15" gradientUnits="userSpaceOnUse">
<stop offset="0.09192" stop-color="#6CC04A"/>
<stop offset="0.2864" stop-color="#66B848"/>
<stop offset="0.5968" stop-color="#54A044"/>
<stop offset="0.8624" stop-color="#41873F"/>
</linearGradient>
<clipPath id="clip0_7680_123">
<rect width="21" height="24" fill="white"/>
</clipPath>
</defs>
</svg>
