<svg width="39" height="20" viewBox="0 0 39 20" fill="none" xmlns="http://www.w3.org/2000/svg">
<path d="M2.95581 4.4491H8.49537C10.1213 4.4631 11.2995 4.9439 12.0299 5.8907C12.7604 6.8375 13.0014 8.1307 12.7534 9.7703C12.6571 10.5195 12.4433 11.2543 12.1126 11.9751C11.7912 12.7025 11.3429 13.3635 10.7897 13.9255C10.1006 14.6603 9.36351 15.1267 8.57805 15.3247C7.77968 15.5242 6.96071 15.6239 6.13899 15.6215H3.65859L2.87313 19.6495H0L2.95581 4.4491ZM5.3742 6.8659L4.134 13.2259C4.21668 13.2399 4.29936 13.2471 4.38204 13.2471H4.67142C5.9943 13.2611 7.09683 13.1271 7.97862 12.8443C8.86041 12.5475 9.45321 11.5159 9.75624 9.7491C10.0043 8.2651 9.75624 7.4099 9.01212 7.1839C8.28165 6.9579 7.36554 6.8519 6.26301 6.8659C6.09765 6.8799 5.93931 6.8871 5.7876 6.8871H5.35353L5.3742 6.8659ZM16.0263 0.399902H18.8787L18.0726 4.4491H20.6357C22.0412 4.4775 23.0884 4.7743 23.7775 5.3395C24.4803 5.9047 24.687 6.9791 24.3976 8.5619L23.0127 15.6215H20.1189L21.4418 8.8799C21.5795 8.1731 21.5381 7.6715 21.3178 7.3747C21.0974 7.0779 20.622 6.9295 19.8916 6.9295L17.5972 6.9083L15.9023 15.6215H13.0498L16.0263 0.399902ZM27.4607 4.4491H33.0002C34.6261 4.4631 35.8043 4.9439 36.5348 5.8907C37.2653 6.8375 37.5063 8.1307 37.2583 9.7703C37.1619 10.5195 36.9482 11.2543 36.6175 11.9751C36.2961 12.7025 35.8477 13.3635 35.2946 13.9255C34.6055 14.6603 33.8684 15.1267 33.0829 15.3247C32.2846 15.5242 31.4656 15.6239 30.6439 15.6215H28.1635L27.378 19.6495H24.5049L27.4607 4.4491ZM29.8791 6.8659L28.6389 13.2259C28.7215 13.2399 28.8042 13.2471 28.8869 13.2471H29.1763C30.4992 13.2611 31.6017 13.1271 32.4835 12.8443C33.3653 12.5475 33.9581 11.5159 34.2611 9.7491C34.5091 8.2651 34.2611 7.4099 33.517 7.1839C32.7865 6.9579 31.8704 6.8519 30.7679 6.8659C30.6025 6.8799 30.4442 6.8871 30.2925 6.8871H29.8584L29.8791 6.8659Z" fill="#787CB5"/>
</svg>
