<svg width="24" height="24" viewBox="0 0 24 24" fill="none" xmlns="http://www.w3.org/2000/svg">
<g clipPath="url(#clip0_7673_201)">
<path d="M11.9138 0C5.82075 0 6.201 2.64225 6.201 2.64225L6.2085 5.37975H12.0225V6.201H3.89775C3.89775 6.201 0 5.7585 0 11.907C0 18.054 3.40275 17.8365 3.40275 17.8365H5.43375V14.9835C5.43375 14.9835 5.32425 11.5807 8.7825 11.5807H14.5485C14.5485 11.5807 17.7885 11.6332 17.7885 8.4495V3.18525C17.7885 3.18525 18.2805 0 11.9138 0ZM8.7075 1.8405C8.98498 1.8405 9.2511 1.95073 9.44731 2.14694C9.64352 2.34315 9.75375 2.60927 9.75375 2.88675C9.75375 3.16423 9.64352 3.43035 9.44731 3.62656C9.2511 3.82277 8.98498 3.933 8.7075 3.933C8.57005 3.9332 8.43391 3.90627 8.30688 3.85376C8.17986 3.80125 8.06444 3.72419 7.96725 3.627C7.87006 3.52981 7.793 3.41439 7.74049 3.28737C7.68798 3.16034 7.66105 3.0242 7.66125 2.88675C7.66125 2.3085 8.12925 1.8405 8.7075 1.8405Z" fill="url(#paint0_linear_7673_201)"/>
<path d="M12.0862 23.8748C18.1792 23.8748 17.799 21.2325 17.799 21.2325L17.7915 18.495H11.9775V17.6738H20.1015C20.1015 17.6738 24 18.1163 24 11.9685C24 5.8208 20.5972 6.03905 20.5972 6.03905H18.5662V8.89129C18.5662 8.89129 18.6757 12.294 15.2175 12.294H9.45145C9.45145 12.294 6.21145 12.2415 6.21145 15.4253V20.6895C6.21145 20.6895 5.71945 23.8748 12.0862 23.8748ZM15.2925 22.0343C15.155 22.0345 15.0189 22.0076 14.8918 21.9551C14.7648 21.9025 14.6494 21.8255 14.5522 21.7283C14.455 21.6311 14.378 21.5157 14.3254 21.3887C14.2729 21.2616 14.246 21.1255 14.2462 20.988C14.2464 20.7813 14.3078 20.5793 14.4227 20.4075C14.5377 20.2357 14.7009 20.1018 14.892 20.0227C15.083 19.9437 15.2931 19.9231 15.4959 19.9634C15.6986 20.0038 15.8848 20.1033 16.031 20.2495C16.1772 20.3957 16.2767 20.5819 16.3171 20.7846C16.3574 20.9874 16.3368 21.1975 16.2578 21.3885C16.1787 21.5796 16.0448 21.7428 15.873 21.8578C15.7012 21.9727 15.4992 22.0341 15.2925 22.0343Z" fill="url(#paint1_linear_7673_201)"/>
</g>
<defs>
<linearGradient id="paint0_linear_7673_201" x1="2.30625" y1="2.0865" x2="14.1735" y2="13.9935" gradientUnits="userSpaceOnUse">
<stop stop-color="#387EB8"/>
<stop offset="1" stop-color="#366994"/>
</linearGradient>
<linearGradient id="paint1_linear_7673_201" x1="9.6067" y1="9.66155" x2="22.3522" y2="21.8723" gradientUnits="userSpaceOnUse">
<stop stop-color="#FFE052"/>
<stop offset="1" stop-color="#FFC331"/>
</linearGradient>
<clipPath id="clip0_7673_201">
<rect width="24" height="24" fill="white"/>
</clipPath>
</defs>
</svg>
