<svg width="23" height="24" viewBox="0 0 23 24" fill="none" xmlns="http://www.w3.org/2000/svg">
<g clip-path="url(#clip0_7673_136)">
<path d="M13.4428 23.423C12.8395 24.1879 11.616 23.7688 11.6015 22.7923L11.3889 8.50879H20.9307C22.659 8.50879 23.6228 10.518 22.5482 11.8804L13.4428 23.423Z" fill="url(#paint0_linear_7673_136)"/>
<path d="M13.4428 23.423C12.8395 24.1879 11.616 23.7688 11.6015 22.7923L11.3889 8.50879H20.9307C22.659 8.50879 23.6228 10.518 22.5482 11.8804L13.4428 23.423Z" fill="url(#paint1_linear_7673_136)" fill-opacity="0.2"/>
<path d="M9.56235 0.439934C10.1657 -0.324965 11.3892 0.0941444 11.4037 1.07072L11.4969 15.3542H2.0745C0.346181 15.3542 -0.617736 13.3449 0.456986 11.9825L9.56235 0.439934Z" fill="#3ECF8E"/>
</g>
<defs>
<linearGradient id="paint0_linear_7673_136" x1="11.3889" y1="11.6758" x2="19.8858" y2="15.2162" gradientUnits="userSpaceOnUse">
<stop stop-color="#249361"/>
<stop offset="1" stop-color="#3ECF8E"/>
</linearGradient>
<linearGradient id="paint1_linear_7673_136" x1="7.62915" y1="6.49434" x2="11.5361" y2="13.8012" gradientUnits="userSpaceOnUse">
<stop/>
<stop offset="1" stop-opacity="0"/>
</linearGradient>
<clipPath id="clip0_7673_136">
<rect width="23" height="24" fill="white"/>
</clipPath>
</defs>
</svg>
