<svg width="39" height="24" viewBox="0 0 39 24" fill="none" xmlns="http://www.w3.org/2000/svg">
<g clip-path="url(#clip0_7629_1241)">
<mask id="mask0_7629_1241" style="mask-type:luminance" maskUnits="userSpaceOnUse" x="0" y="0" width="39" height="24">
<path d="M0 0H39V23.5636H0V0Z" fill="white"/>
</mask>
<g mask="url(#mask0_7629_1241)">
<path fill-rule="evenodd" clip-rule="evenodd" d="M19.5 0C14.3 0 11.05 2.61818 9.75 7.85455C11.7 5.23636 13.975 4.25455 16.575 4.90909C18.0584 5.28218 19.1187 6.36655 20.2923 7.56582C22.204 9.52 24.4169 11.7818 29.25 11.7818C34.45 11.7818 37.7 9.16364 39 3.92727C37.05 6.54545 34.775 7.52727 32.175 6.87273C30.6916 6.49964 29.6313 5.41527 28.4577 4.216C26.546 2.26182 24.3331 0 19.5 0ZM9.75 11.7818C4.55 11.7818 1.3 14.4 0 19.6364C1.95 17.0182 4.225 16.0364 6.825 16.6909C8.30844 17.0647 9.36867 18.1484 10.5423 19.3476C12.454 21.3018 14.6669 23.5636 19.5 23.5636C24.7 23.5636 27.95 20.9455 29.25 15.7091C27.3 18.3273 25.025 19.3091 22.425 18.6545C20.9416 18.2815 19.8813 17.1971 18.7077 15.9978C16.796 14.0436 14.5831 11.7818 9.75 11.7818Z" fill="#38BDF8"/>
</g>
</g>
<defs>
<clipPath id="clip0_7629_1241">
<rect width="39" height="24" fill="white"/>
</clipPath>
</defs>
</svg>
