<svg width="24" height="24" viewBox="0 0 24 24" fill="none" xmlns="http://www.w3.org/2000/svg">
<g clipPath="url(#clip0_7673_151)">
<path d="M23.9206 3.54309L12.6466 23.6245C12.4138 24.0391 11.8158 24.0415 11.5795 23.6289L0.082001 3.54496C-0.175437 3.0954 0.210532 2.55078 0.722032 2.64192L12.0081 4.65129C12.0801 4.66411 12.1539 4.66398 12.2258 4.65092L23.2758 2.64472C23.7857 2.55218 24.1734 3.0926 23.9206 3.54309Z" fill="url(#paint0_linear_7673_151)"/>
<path d="M17.3843 0.00589337L9.0413 1.63434C8.97464 1.64735 8.91421 1.68206 8.86951 1.73301C8.82481 1.78396 8.79838 1.84826 8.79437 1.91581L8.28118 10.5498C8.27836 10.5972 8.28665 10.6445 8.30541 10.6881C8.32418 10.7317 8.35288 10.7704 8.38925 10.801C8.42563 10.8316 8.46866 10.8534 8.51495 10.8645C8.56123 10.8757 8.60949 10.876 8.6559 10.8653L10.9787 10.3313C11.1961 10.2813 11.3925 10.472 11.3477 10.6897L10.6576 14.056C10.6112 14.2825 10.8247 14.4762 11.0468 14.409L12.4816 13.9748C12.7039 13.9076 12.9177 14.1018 12.8706 14.3286L11.7739 19.6161C11.7053 19.9469 12.147 20.1272 12.3311 19.8437L12.4542 19.6543L19.2526 6.13962C19.3665 5.91335 19.1701 5.65533 18.9207 5.70333L16.5296 6.16297C16.305 6.20611 16.1138 5.99768 16.1772 5.77878L17.7377 0.389987C17.8012 0.170532 17.6092 -0.0379977 17.3843 0.00589337Z" fill="url(#paint1_linear_7673_151)"/>
</g>
<defs>
<linearGradient id="paint0_linear_7673_151" x1="-19.872" y1="165.658" x2="1189.88" y2="1815.02" gradientUnits="userSpaceOnUse">
<stop stop-color="#41D1FF"/>
<stop offset="1" stop-color="#BD34FE"/>
</linearGradient>
<linearGradient id="paint1_linear_7673_151" x1="485.637" y1="44.805" x2="733.867" y2="1754.26" gradientUnits="userSpaceOnUse">
<stop stop-color="#FFEA83"/>
<stop offset="0.08333" stop-color="#FFDD35"/>
<stop offset="1" stop-color="#FFA800"/>
</linearGradient>
<clipPath id="clip0_7673_151">
<rect width="24" height="24" fill="white"/>
</clipPath>
</defs>
</svg>
