<svg width="18" height="16" viewBox="0 0 18 16" fill="none" xmlns="http://www.w3.org/2000/svg">
<g clip-path="url(#clip0_7629_929)">
<path d="M9.03169 6.28125C8.07951 6.28125 7.30762 7.04377 7.30762 7.98438C7.30762 8.92498 8.07951 9.6875 9.03169 9.6875C9.98388 9.6875 10.7558 8.92498 10.7558 7.98438C10.7558 7.04377 9.98388 6.28125 9.03169 6.28125Z" fill="#58C4DC"/>
<path d="M17.9987 7.99982C17.9987 6.66274 16.7453 5.49005 14.7496 4.71829C14.7763 4.54449 14.8004 4.37257 14.8176 4.20378C15.0144 2.28255 14.5458 0.895894 13.4987 0.298567C12.3272 -0.369662 10.6725 0.115353 8.99936 1.43801C7.32623 0.115353 5.67151 -0.369662 4.5 0.298567C3.45294 0.895894 2.98434 2.28255 3.18118 4.20378C3.19832 4.37257 3.22181 4.54511 3.24912 4.71954C3.08276 4.78229 2.91957 4.8488 2.76273 4.91844C0.981022 5.70965 0 6.80517 0 7.99982C0 9.33691 1.25342 10.5096 3.24912 11.2814C3.22181 11.4552 3.19832 11.6271 3.18118 11.7959C2.98434 13.7171 3.45294 15.1038 4.5 15.7011C4.85999 15.9027 5.26791 16.0058 5.68167 15.9997C6.67349 15.9997 7.83166 15.484 8.99936 14.5616C10.1664 15.484 11.3252 15.9997 12.3183 15.9997C12.7321 16.0057 13.14 15.9027 13.5 15.7011C14.5471 15.1038 15.0157 13.7171 14.8188 11.7959C14.8017 11.6271 14.7776 11.4552 14.7509 11.2814C16.7466 10.5109 18 9.33628 18 7.99982M12.3107 0.846954C12.5768 0.840613 12.8397 0.904277 13.0727 1.03142C13.7997 1.44616 14.1261 2.57117 13.9673 4.11782C13.9565 4.22323 13.9438 4.3299 13.9286 4.43719C13.0988 4.19025 12.249 4.01413 11.3887 3.91077C10.8672 3.22575 10.2873 2.58614 9.65528 1.99894C10.6477 1.24099 11.5792 0.846954 12.3101 0.846954M11.9691 9.69392C11.648 10.2447 11.2983 10.7787 10.9214 11.2939C10.2826 11.3588 9.64088 11.391 8.99873 11.3905C8.3568 11.391 7.71526 11.3587 7.07669 11.2939C6.70084 10.7787 6.3522 10.2447 6.03217 9.69392C5.71105 9.14466 5.4192 8.57919 5.15782 7.99982C5.4192 7.42045 5.71105 6.85498 6.03217 6.30572C6.35169 5.75717 6.69926 5.22503 7.07351 4.71139C7.71326 4.64494 8.3561 4.61185 8.99936 4.61225C9.6413 4.61187 10.2828 4.64412 10.9214 4.70888C11.2969 5.22331 11.6458 5.75628 11.9666 6.30572C12.2874 6.85512 12.5793 7.42058 12.8409 7.99982C12.5793 8.57907 12.2874 9.14453 11.9666 9.69392M13.2778 9.06648C13.4793 9.60949 13.6447 10.1649 13.773 10.7292C13.2162 10.9007 12.6486 11.0359 12.0739 11.1339C12.2923 10.8085 12.504 10.4699 12.7088 10.1181C12.9114 9.77047 13.1012 9.41973 13.2803 9.06899M7.79357 12.1993C8.18851 12.2232 8.59172 12.237 9 12.237C9.40828 12.237 9.81403 12.2232 10.2096 12.1993C9.83454 12.6432 9.43047 13.0624 9 13.4542C8.57046 13.0625 8.16744 12.6433 7.79357 12.1993ZM5.9255 11.1327C5.35056 11.0351 4.78274 10.9003 4.2257 10.7292C4.35349 10.1658 4.51829 9.61122 4.71906 9.06899C4.89558 9.41973 5.0848 9.77047 5.29053 10.1181C5.49626 10.4657 5.70897 10.8083 5.9255 11.1339M4.71906 6.93003C4.51901 6.38981 4.35463 5.83734 4.22696 5.27609C4.78263 5.10476 5.34893 4.96916 5.92232 4.87013C5.70516 5.19452 5.49245 5.53083 5.28736 5.88157C5.08226 6.23231 4.89495 6.57866 4.71589 6.93003M10.2058 3.79971C9.81085 3.77587 9.40765 3.76206 8.99619 3.76206C8.58812 3.76206 8.18597 3.77461 7.78976 3.79971C8.16363 3.35574 8.56665 2.93653 8.99619 2.54482C9.42683 2.93643 9.8309 3.35564 10.2058 3.79971ZM12.7076 5.88157C12.5018 5.52936 12.2891 5.19054 12.0694 4.86511C12.6457 4.9631 13.2148 5.0985 13.773 5.27044C13.6449 5.83377 13.4801 6.38833 13.2797 6.93066C13.1031 6.57992 12.9133 6.22917 12.7082 5.8822M4.03394 4.11845C3.87329 2.57243 4.20157 1.44679 4.92797 1.03205C5.16099 0.905101 5.4239 0.841451 5.68993 0.847581C6.42077 0.847581 7.35226 1.24162 8.34472 1.99957C7.71229 2.58718 7.13193 3.22721 6.60999 3.91265C5.74993 4.0165 4.90029 4.19197 4.07013 4.43719C4.05552 4.3299 4.04219 4.22386 4.03203 4.11845M3.11451 5.69083C3.21229 5.649 3.31198 5.60717 3.41357 5.56534C3.6133 6.39799 3.88413 7.2124 4.22316 7.99982C3.88349 8.78879 3.61244 9.60491 3.41294 10.4393C1.79505 9.78365 0.857203 8.87511 0.857203 7.99982C0.857203 7.17034 1.68266 6.32894 3.11451 5.69083ZM4.92797 14.9676C4.20157 14.5529 3.87329 13.4272 4.03394 11.8812C4.0441 11.7758 4.05743 11.6697 4.07203 11.5618C4.90187 11.8087 5.75161 11.9848 6.6119 12.0883C7.13358 12.7735 7.7135 13.4135 8.34535 14.0013C6.96176 15.0573 5.69754 15.4056 4.92987 14.9676M13.9667 11.8812C14.1254 13.4278 13.7991 14.5529 13.072 14.9676C12.305 15.4068 11.0401 15.0573 9.65719 14.0013C10.2888 13.4135 10.8685 12.7735 11.39 12.0883C12.2503 11.9849 13.1 11.8088 13.9299 11.5618C13.9451 11.6697 13.9578 11.7758 13.9686 11.8812M14.5896 10.4381C14.3895 9.60414 14.1183 8.78847 13.7787 7.99982C14.1181 7.21075 14.3892 6.39466 14.589 5.56032C16.2037 6.216 17.1441 7.12454 17.1441 7.99982C17.1441 8.87511 16.2062 9.78365 14.5883 10.4393" fill="#58C4DC"/>
</g>
<defs>
<clipPath id="clip0_7629_929">
<rect width="18" height="16" fill="white"/>
</clipPath>
</defs>
</svg>
